<svg width="23" height="28" viewBox="0 0 23 28" fill="none" xmlns="http://www.w3.org/2000/svg">
<circle cx="10.9816" cy="7.50096" r="6.58898" fill="#F7CA56"/>
<path d="M4.39265 7.50096C4.39265 6.63569 4.56308 5.77888 4.89421 4.97947C5.22533 4.18006 5.71067 3.4537 6.32252 2.84185C6.93436 2.23001 7.66072 1.74467 8.46014 1.41354C9.25955 1.08242 10.1164 0.911987 10.9816 0.911987C11.8469 0.911987 12.7037 1.08242 13.5031 1.41354C14.3025 1.74467 15.0289 2.23001 15.6407 2.84185C16.2526 3.4537 16.7379 4.18006 17.069 4.97947C17.4002 5.77888 17.5706 6.63569 17.5706 7.50096L8.7853 4.20648L4.39265 7.50096Z" fill="#8D8686"/>
<path d="M4.39265 7.867C4.39265 6.80944 3.13674 6.12829 3.54145 5.15123C3.94616 4.17417 4.53936 3.2864 5.28717 2.53859C6.03498 1.79078 7.07614 0.584588 8.05319 0.179877C9.03025 -0.224834 9.92407 0.179863 10.9816 0.179863C12.0392 0.179863 13.0864 0.388165 14.0635 0.792876C15.0405 1.19759 15.9283 1.79078 16.6761 2.53859C17.4239 3.2864 18.0171 4.17417 18.4218 5.15123C18.8265 6.12829 17.5706 6.44339 17.5706 7.50095L8.05319 3.84042L4.39265 7.867Z" fill="#31CA24"/>
<path d="M6 14.2899H16.6954C19.8986 14.2899 22.4954 16.8867 22.4954 20.0899V27.8H0.2V20.0899C0.2 16.8867 2.79675 14.2899 6 14.2899Z" fill="#F7F7F7" stroke="#B0ADAD" stroke-width="0.4"/>
</svg>
